# xmcd
#
# Track frame offsets: 
#        150
#        21941
#        40661
#        63241
#        82129
#        106274
#        120248
#        145452
#        166272
#        187320
#        215337
#
# Disc length: 2967 seconds
#
# Revision: 2
# Processed by: cddbd v1.5.2PL0 Copyright (c) Steve Scherf et al.
# Submitted via: ExactAudioCopy v0.99pb5
#
DISCID=970b950b
DTITLE=Mina - Sconcerto
DYEAR=2001
DGENRE=Folk
TTITLE0=Tu sì' 'na cosa grande
TTITLE1=Pasqualino marajà
TTITLE2=Resta cu'mme
TTITLE3=Amara terra mia
TTITLE4=Notte di luna calante
TTITLE5=La donna riccia
TTITLE6=Dio, come ti amo!
TTITLE7=Strada 'nfosa
TTITLE8=Come hai fatto 
TTITLE9=La lontananza
TTITLE10=Nel blu, dipinto di blu (Volare)
EXTD=
EXTT0=
EXTT1=
EXTT2=
EXTT3=
EXTT4=
EXTT5=
EXTT6=
EXTT7=
EXTT8=
EXTT9=
EXTT10=
PLAYORDER=
